<svg xmlns="http://www.w3.org/2000/svg" width="400" height="240" viewBox="0 0 400 240" fill="none">
<path d="M0 50C0 22.3858 22.3858 0 50 0L350 0C377.614 0 400 22.3858 400 50V190C400 217.614 377.614 240 350 240L50 240C22.3858 240 0 217.614 0 190L0 50Z" fill="url(#paint0_linear)"/>
<path d="M128.746 143.492C128.746 156.386 123.552 164.334 108.507 164.334C96.3284 164.334 85.0448 162.921 70 159.212V178.641C83.4328 182.704 97.0448 185 110.657 185C139.134 185 154 170.516 154 143.492C154 114.348 138.597 101.277 108.687 101.277C104.567 101.277 102.06 101.277 98.6567 101.807L100.627 75.3125H145.045L153.104 55H78.9552L74.4776 123.533C83.2537 122.296 93.1045 121.59 101.522 121.59C121.582 121.59 128.746 126.005 128.746 143.492Z" fill="white"/>
<path d="M185.61 55V72.9552C185.61 74.6081 185.188 75.0942 183.891 75.0942C182.835 75.0942 181.418 74.9322 180 74.6729V78.0435C181.508 78.5621 184.102 78.8538 185.158 78.7566C188.566 78.4973 189.772 76.5527 189.772 73.4089V58.6947H195.05V78.5621H199.243V55H185.61Z" fill="white"/>
<path d="M202.967 78.5621H217.776V74.8025H207.129V68.5474H216.057L217.414 64.7878H207.129V58.7596H217.776V55H202.967V78.5621Z" fill="white"/>
<path d="M219.302 58.7596H226.028V78.5621H230.19V58.7596H236.283L237.64 55H219.302V58.7596Z" fill="white"/>
<path d="M181.448 91.4379V115H185.61V95.1975H193.06L194.417 91.4379H181.448Z" fill="white"/>
<path d="M209.672 115H213.894L206.806 91.4379H201.679L194.561 115H198.783L200.442 109.328H208.013L209.672 115ZM204.243 96.5263L206.897 105.601H201.558L204.243 96.5263Z" fill="white"/>
<path d="M223.949 107.675C228.986 107.675 231.308 105.05 231.308 99.508C231.308 93.9335 228.986 91.4379 223.949 91.4379H215.534V115H219.696V107.675H223.949ZM219.696 103.916V95.1975H223.617C226.03 95.1975 227.146 96.6235 227.146 99.508C227.146 102.263 226.03 103.916 223.617 103.916H219.696Z" fill="white"/>
<path d="M247.463 115H251.685L244.598 91.4379H239.47L232.352 115H236.575L238.233 109.328H245.804L247.463 115ZM242.034 96.5263L244.688 105.601H239.349L242.034 96.5263Z" fill="white"/>
<path d="M265.782 115H269.944V91.4379H265.782V101.193H257.367V91.4379H253.205V115H257.367V104.953H265.782V115Z" fill="white"/>
<path d="M272.042 95.1975H278.768V115H282.93V95.1975H289.023L290.38 91.4379H272.042V95.1975Z" fill="white"/>
<path d="M309.425 91.4379H303.725L296.245 109.393V91.4379H292.234V115H297.934L305.414 97.0448V115H309.425V91.4379Z" fill="white"/>
<path d="M330 91.4379H324.299L316.82 109.393V91.4379H312.808V115H318.509L325.989 97.0448V115H330V91.4379Z" fill="white"/>
<path d="M180 137H330V139H180V137Z" fill="white"/>
<path d="M183.101 184.647H187.005V161L180 162.893V166.262L183.101 165.717V184.647Z" fill="white"/>
<path d="M199.893 177.396C199.893 179.738 199.061 181.182 196.649 181.182C194.697 181.182 192.888 180.925 190.477 180.251V183.781C192.63 184.519 194.812 184.936 196.994 184.936C201.558 184.936 203.941 182.305 203.941 177.396C203.941 172.102 201.472 169.727 196.678 169.727C196.018 169.727 195.616 169.727 195.07 169.824L195.386 165.011H202.506L203.798 161.321H191.912L191.194 173.77C192.601 173.545 194.18 173.417 195.53 173.417C198.745 173.417 199.893 174.219 199.893 177.396Z" fill="white"/>
<path d="M213.427 185C218.136 185 220.92 181.406 220.92 173.16C220.92 164.914 218.136 161.096 213.427 161.096C208.719 161.096 205.963 164.914 205.963 173.16C205.963 181.438 208.719 185 213.427 185ZM213.427 181.406C210.757 181.406 209.925 178.711 209.925 173.16C209.925 167.738 210.757 164.69 213.427 164.69C216.097 164.69 216.959 167.738 216.959 173.16C216.959 178.711 216.097 181.406 213.427 181.406Z" fill="white"/>
<path d="M238.549 185C243.257 185 246.042 181.406 246.042 173.16C246.042 164.914 243.257 161.096 238.549 161.096C233.841 161.096 231.085 164.914 231.085 173.16C231.085 181.438 233.841 185 238.549 185ZM238.549 181.406C235.879 181.406 235.047 178.711 235.047 173.16C235.047 167.738 235.879 164.69 238.549 164.69C241.219 164.69 242.08 167.738 242.08 173.16C242.08 178.711 241.219 181.406 238.549 181.406Z" fill="white"/>
<path d="M256.199 185C260.907 185 263.692 181.406 263.692 173.16C263.692 164.914 260.907 161.096 256.199 161.096C251.49 161.096 248.734 164.914 248.734 173.16C248.734 181.438 251.49 185 256.199 185ZM256.199 181.406C253.529 181.406 252.696 178.711 252.696 173.16C252.696 167.738 253.529 164.69 256.199 164.69C258.869 164.69 259.73 167.738 259.73 173.16C259.73 178.711 258.869 181.406 256.199 181.406Z" fill="white"/>
<path d="M273.848 185C278.556 185 281.341 181.406 281.341 173.16C281.341 164.914 278.556 161.096 273.848 161.096C269.14 161.096 266.384 164.914 266.384 173.16C266.384 181.438 269.14 185 273.848 185ZM273.848 181.406C271.178 181.406 270.346 178.711 270.346 173.16C270.346 167.738 271.178 164.69 273.848 164.69C276.518 164.69 277.379 167.738 277.379 173.16C277.379 178.711 276.518 181.406 273.848 181.406Z" fill="white"/>
<path d="M291.448 184.647H295.41V175.791L303.133 184.647H308.243L297.994 172.872L308.157 161.321H303.104L295.41 169.984V161.321H291.448V184.647Z" fill="white"/>
<path d="M314.956 161.321H309.301L309.444 184.647H313.234L313.09 167.257L317.368 183.781H321.933L326.21 167.257V184.647H330V161.321H324.344L319.665 178.968L314.956 161.321Z" fill="white"/>
<defs>
<linearGradient id="paint0_linear" x1="200" y1="0" x2="200" y2="240" gradientUnits="userSpaceOnUse">
<stop stop-color="#0F1D28"/>
<stop offset="1" stop-color="#05141F"/>
</linearGradient>
</defs>
</svg>