<svg width="1283" height="340" viewBox="0 0 1283 340" fill="none" xmlns="http://www.w3.org/2000/svg">
<g clip-path="url(#clip0)">
<path d="M759.421 261.969C759.421 263.926 759.97 264.993 761.251 264.993C762.166 264.993 762.899 264.637 763.814 264.103L1094.02 55.4389C1099.88 51.7033 1105.19 49.7465 1113.06 49.7465H1185.73C1196.89 49.7465 1204.4 57.0399 1204.4 67.8912V202.554C1204.4 218.742 1200.74 228.17 1185.73 236.886L1097.68 288.296C1096.59 289.008 1095.49 289.364 1094.75 289.364C1093.66 289.364 1092.74 288.652 1092.74 285.628V128.374C1092.74 126.595 1092.19 125.35 1090.91 125.35C1090 125.35 1089.26 125.705 1088.35 126.239L846.915 278.69C840.143 282.96 834.651 284.205 828.428 284.205H668.266C657.1 284.205 649.595 276.912 649.595 266.06V72.1606C649.595 70.7374 648.863 69.4922 647.765 69.4922C646.85 69.4922 646.117 69.848 645.202 70.3817L485.955 163.418C484.308 164.307 483.942 165.197 483.942 165.908C483.942 166.62 484.125 167.154 485.406 168.221L599.075 278.69C600.54 280.114 601.638 281.359 601.638 282.426C601.638 283.671 599.991 284.383 597.977 284.383H495.107C487.053 284.383 480.83 283.138 476.437 278.868L407.43 211.804C406.698 211.092 406.148 210.737 405.416 210.737C404.867 210.737 403.952 211.092 403.22 211.448L287.903 278.868C280.947 282.96 276.188 284.205 269.233 284.205H163.068C151.902 284.205 144.397 276.912 144.397 266.06V133.888C144.397 117.522 148.058 108.272 163.068 99.5556L251.66 47.7897C252.576 47.256 253.308 47.0781 254.04 47.0781C255.321 47.0781 256.053 48.5012 256.053 51.3475V228.17C256.053 229.949 256.603 230.838 257.884 230.838C258.616 230.838 259.531 230.304 260.447 229.771L559.721 54.9053C566.86 50.8138 571.253 49.5686 579.49 49.5686H740.567C751.733 49.5686 759.238 56.8621 759.238 67.7133L759.421 261.969Z" fill="white"/>
<path opacity="0.8" d="M224.318 63.8096C221.881 59.3819 220.97 54.2745 221.726 49.2772L222.536 49.3998C221.807 54.2191 222.686 59.1443 225.036 63.4143L224.318 63.8096Z" fill="white" fill-opacity="0.3"/>
<g opacity="0.3">
<path d="M198.033 61.6824C198.297 62.1144 198.633 62.4504 199.041 62.6904C199.457 62.9304 199.925 63.0504 200.445 63.0504C201.021 63.0504 201.501 62.8984 201.885 62.5944C202.277 62.2824 202.473 61.8584 202.473 61.3224C202.473 60.8344 202.317 60.4224 202.005 60.0864C201.701 59.7424 201.205 59.5664 200.517 59.5584H199.725V58.6344H200.493C200.989 58.6344 201.409 58.4984 201.753 58.2264C202.097 57.9464 202.269 57.5904 202.269 57.1584C202.269 56.6464 202.105 56.2624 201.777 56.0064C201.449 55.7424 201.061 55.6104 200.613 55.6104C200.133 55.6104 199.709 55.7384 199.341 55.9944C198.973 56.2424 198.661 56.5784 198.405 57.0024V55.6584C198.621 55.4104 198.933 55.1904 199.341 54.9984C199.749 54.8064 200.205 54.7104 200.709 54.7104C201.253 54.7104 201.729 54.8144 202.137 55.0224C202.553 55.2224 202.873 55.4984 203.097 55.8504C203.321 56.2024 203.433 56.5984 203.433 57.0384C203.433 58.0064 202.909 58.6744 201.861 59.0424C202.421 59.1784 202.857 59.4544 203.169 59.8704C203.489 60.2864 203.649 60.7824 203.649 61.3584C203.649 61.8704 203.513 62.3224 203.241 62.7144C202.977 63.1064 202.605 63.4104 202.125 63.6264C201.653 63.8424 201.113 63.9504 200.505 63.9504C199.945 63.9504 199.449 63.8584 199.017 63.6744C198.593 63.4904 198.265 63.2784 198.033 63.0384V61.6824Z" fill="white"/>
<path d="M204.981 57.3504L204.969 56.1744L207.057 54.8304H208.089V63.8304H206.973V56.0424L204.981 57.3504Z" fill="white"/>
<path d="M212.053 58.1304C211.549 58.1304 211.133 57.9664 210.805 57.6384C210.485 57.3024 210.325 56.8864 210.325 56.3904C210.325 55.8944 210.485 55.4824 210.805 55.1544C211.133 54.8184 211.549 54.6504 212.053 54.6504C212.557 54.6504 212.969 54.8184 213.289 55.1544C213.617 55.4824 213.781 55.8944 213.781 56.3904C213.781 56.8864 213.617 57.3024 213.289 57.6384C212.969 57.9664 212.557 58.1304 212.053 58.1304ZM211.129 56.3904C211.129 56.6544 211.213 56.8784 211.381 57.0624C211.557 57.2384 211.781 57.3264 212.053 57.3264C212.317 57.3264 212.537 57.2384 212.713 57.0624C212.889 56.8784 212.977 56.6544 212.977 56.3904C212.977 56.1264 212.889 55.9064 212.713 55.7304C212.537 55.5464 212.317 55.4544 212.053 55.4544C211.781 55.4544 211.557 55.5464 211.381 55.7304C211.213 55.9064 211.129 56.1264 211.129 56.3904Z" fill="white"/>
</g>
<g opacity="0.3">
<path d="M317.033 274.682C317.297 275.114 317.633 275.45 318.041 275.69C318.457 275.93 318.925 276.05 319.445 276.05C320.021 276.05 320.501 275.898 320.885 275.594C321.277 275.282 321.473 274.858 321.473 274.322C321.473 273.834 321.317 273.422 321.005 273.086C320.701 272.742 320.205 272.566 319.517 272.558H318.725V271.634H319.493C319.989 271.634 320.409 271.498 320.753 271.226C321.097 270.946 321.269 270.59 321.269 270.158C321.269 269.646 321.105 269.262 320.777 269.006C320.449 268.742 320.061 268.61 319.613 268.61C319.133 268.61 318.709 268.738 318.341 268.994C317.973 269.242 317.661 269.578 317.405 270.002V268.658C317.621 268.41 317.933 268.19 318.341 267.998C318.749 267.806 319.205 267.71 319.709 267.71C320.253 267.71 320.729 267.814 321.137 268.022C321.553 268.222 321.873 268.498 322.097 268.85C322.321 269.202 322.433 269.598 322.433 270.038C322.433 271.006 321.909 271.674 320.861 272.042C321.421 272.178 321.857 272.454 322.169 272.87C322.489 273.286 322.649 273.782 322.649 274.358C322.649 274.87 322.513 275.322 322.241 275.714C321.977 276.106 321.605 276.41 321.125 276.626C320.653 276.842 320.113 276.95 319.505 276.95C318.945 276.95 318.449 276.858 318.017 276.674C317.593 276.49 317.265 276.278 317.033 276.038V274.682Z" fill="white"/>
<path d="M323.981 270.35L323.969 269.174L326.057 267.83H327.089V276.83H325.973V269.042L323.981 270.35Z" fill="white"/>
<path d="M331.053 271.13C330.549 271.13 330.133 270.966 329.805 270.638C329.485 270.302 329.325 269.886 329.325 269.39C329.325 268.894 329.485 268.482 329.805 268.154C330.133 267.818 330.549 267.65 331.053 267.65C331.557 267.65 331.969 267.818 332.289 268.154C332.617 268.482 332.781 268.894 332.781 269.39C332.781 269.886 332.617 270.302 332.289 270.638C331.969 270.966 331.557 271.13 331.053 271.13ZM330.129 269.39C330.129 269.654 330.213 269.878 330.381 270.062C330.557 270.238 330.781 270.326 331.053 270.326C331.317 270.326 331.537 270.238 331.713 270.062C331.889 269.878 331.977 269.654 331.977 269.39C331.977 269.126 331.889 268.906 331.713 268.73C331.537 268.546 331.317 268.454 331.053 268.454C330.781 268.454 330.557 268.546 330.381 268.73C330.213 268.906 330.129 269.126 330.129 269.39Z" fill="white"/>
</g>
<g opacity="0.3">
<path d="M429.373 267.83V273.926H430.573V274.838H429.373V276.83H428.269V274.838H423.793V274.106L427.957 267.83H429.373ZM428.269 269.042L425.053 273.938H428.281L428.269 269.042Z" fill="white"/>
<path d="M431.842 274.658C432.114 275.106 432.454 275.45 432.862 275.69C433.278 275.93 433.726 276.05 434.206 276.05C434.622 276.05 434.99 275.962 435.31 275.786C435.638 275.602 435.89 275.354 436.066 275.042C436.242 274.722 436.33 274.366 436.33 273.974C436.33 273.598 436.246 273.266 436.078 272.978C435.918 272.682 435.702 272.454 435.43 272.294C435.158 272.134 434.866 272.054 434.554 272.054C434.194 272.054 433.874 272.122 433.594 272.258C433.314 272.394 433.106 272.554 432.97 272.738H432.178L432.61 267.83H437.11V268.742H433.618L433.378 271.598C433.778 271.302 434.258 271.154 434.818 271.154C435.298 271.154 435.742 271.27 436.15 271.502C436.558 271.734 436.882 272.066 437.122 272.498C437.37 272.922 437.494 273.414 437.494 273.974C437.494 274.59 437.35 275.122 437.062 275.57C436.782 276.018 436.394 276.362 435.898 276.602C435.402 276.834 434.846 276.95 434.23 276.95C433.71 276.95 433.242 276.858 432.826 276.674C432.41 276.49 432.082 276.27 431.842 276.014V274.658Z" fill="white"/>
<path d="M440.573 271.13C440.069 271.13 439.653 270.966 439.325 270.638C439.005 270.302 438.845 269.886 438.845 269.39C438.845 268.894 439.005 268.482 439.325 268.154C439.653 267.818 440.069 267.65 440.573 267.65C441.077 267.65 441.489 267.818 441.809 268.154C442.137 268.482 442.301 268.894 442.301 269.39C442.301 269.886 442.137 270.302 441.809 270.638C441.489 270.966 441.077 271.13 440.573 271.13ZM439.649 269.39C439.649 269.654 439.733 269.878 439.901 270.062C440.077 270.238 440.301 270.326 440.573 270.326C440.837 270.326 441.057 270.238 441.233 270.062C441.409 269.878 441.497 269.654 441.497 269.39C441.497 269.126 441.409 268.906 441.233 268.73C441.057 268.546 440.837 268.454 440.573 268.454C440.301 268.454 440.077 268.546 439.901 268.73C439.733 268.906 439.649 269.126 439.649 269.39Z" fill="white"/>
</g>
<g opacity="0.3">
<path d="M1142.03 274.682C1142.3 275.114 1142.63 275.45 1143.04 275.69C1143.46 275.93 1143.93 276.05 1144.45 276.05C1145.02 276.05 1145.5 275.898 1145.89 275.594C1146.28 275.282 1146.47 274.858 1146.47 274.322C1146.47 273.834 1146.32 273.422 1146.01 273.086C1145.7 272.742 1145.21 272.566 1144.52 272.558H1143.73V271.634H1144.49C1144.99 271.634 1145.41 271.498 1145.75 271.226C1146.1 270.946 1146.27 270.59 1146.27 270.158C1146.27 269.646 1146.11 269.262 1145.78 269.006C1145.45 268.742 1145.06 268.61 1144.61 268.61C1144.13 268.61 1143.71 268.738 1143.34 268.994C1142.97 269.242 1142.66 269.578 1142.41 270.002V268.658C1142.62 268.41 1142.93 268.19 1143.34 267.998C1143.75 267.806 1144.21 267.71 1144.71 267.71C1145.25 267.71 1145.73 267.814 1146.14 268.022C1146.55 268.222 1146.87 268.498 1147.1 268.85C1147.32 269.202 1147.43 269.598 1147.43 270.038C1147.43 271.006 1146.91 271.674 1145.86 272.042C1146.42 272.178 1146.86 272.454 1147.17 272.87C1147.49 273.286 1147.65 273.782 1147.65 274.358C1147.65 274.87 1147.51 275.322 1147.24 275.714C1146.98 276.106 1146.61 276.41 1146.13 276.626C1145.65 276.842 1145.11 276.95 1144.51 276.95C1143.95 276.95 1143.45 276.858 1143.02 276.674C1142.59 276.49 1142.27 276.278 1142.03 276.038V274.682Z" fill="white"/>
<path d="M1148.98 270.35L1148.97 269.174L1151.06 267.83H1152.09V276.83H1150.97V269.042L1148.98 270.35Z" fill="white"/>
<path d="M1156.05 271.13C1155.55 271.13 1155.13 270.966 1154.81 270.638C1154.49 270.302 1154.33 269.886 1154.33 269.39C1154.33 268.894 1154.49 268.482 1154.81 268.154C1155.13 267.818 1155.55 267.65 1156.05 267.65C1156.56 267.65 1156.97 267.818 1157.29 268.154C1157.62 268.482 1157.78 268.894 1157.78 269.39C1157.78 269.886 1157.62 270.302 1157.29 270.638C1156.97 270.966 1156.56 271.13 1156.05 271.13ZM1155.13 269.39C1155.13 269.654 1155.21 269.878 1155.38 270.062C1155.56 270.238 1155.78 270.326 1156.05 270.326C1156.32 270.326 1156.54 270.238 1156.71 270.062C1156.89 269.878 1156.98 269.654 1156.98 269.39C1156.98 269.126 1156.89 268.906 1156.71 268.73C1156.54 268.546 1156.32 268.454 1156.05 268.454C1155.78 268.454 1155.56 268.546 1155.38 268.73C1155.21 268.906 1155.13 269.126 1155.13 269.39Z" fill="white"/>
</g>
<line opacity="0.8" x1="280.126" y1="282.748" x2="681.935" y2="48.4197" stroke="black" stroke-opacity="0.3"/>
<line opacity="0.8" x1="723.733" y1="289.068" x2="765.996" y2="262.35" stroke="black" stroke-opacity="0.3"/>
<line opacity="0.8" x1="165.654" y1="284.578" x2="262.843" y2="227.899" stroke="black" stroke-opacity="0.3"/>
</g>
<path opacity="0.8" d="M305.409 268.134C309.756 272.413 312.226 278.244 312.274 284.344L311.454 284.35C311.408 278.468 309.026 272.845 304.834 268.718L305.409 268.134Z" fill="white" fill-opacity="0.3"/>
<path opacity="0.8" d="M457.468 260.382C454.114 263.285 451.671 267.096 450.434 271.356C449.196 275.616 449.217 280.143 450.494 284.392L451.279 284.156C450.048 280.059 450.028 275.693 451.221 271.585C452.414 267.477 454.77 263.802 458.005 261.002L457.468 260.382Z" fill="white" fill-opacity="0.3"/>
<path opacity="0.8" d="M1133.55 288.888C1134.56 285.705 1134.88 282.338 1134.46 279.022C1134.04 275.707 1132.91 272.522 1131.14 269.689L1130.44 270.124C1132.15 272.855 1133.24 275.927 1133.65 279.125C1134.05 282.322 1133.75 285.569 1132.77 288.639L1133.55 288.888Z" fill="white" fill-opacity="0.3"/>
<line opacity="0.8" x1="75.8575" y1="336.947" x2="650.255" y2="1.96807" stroke="white" stroke-opacity="0.3"/>
<line opacity="0.8" x1="649.436" y1="336.044" x2="1177.23" y2="2.38629" stroke="white" stroke-opacity="0.3"/>
<line opacity="0.8" x1="754.838" y1="337.345" x2="1282.63" y2="3.68707" stroke="white" stroke-opacity="0.3"/>
<line opacity="0.8" x1="1081.74" y1="130.777" x2="1198.75" y2="56.8018" stroke="black" stroke-opacity="0.3"/>
<line opacity="0.8" x1="1011.42" y1="339.496" x2="1270.17" y2="187.686" stroke="white" stroke-opacity="0.3"/>
<line opacity="0.8" x1="186.854" y1="337.383" x2="761.251" y2="2.40362" stroke="white" stroke-opacity="0.3"/>
<line opacity="0.8" x1="0.747736" y1="193.867" x2="331.54" y2="0.567858" stroke="white" stroke-opacity="0.3"/>
<line opacity="0.8" x1="1.39355" y1="284.293" x2="618.394" y2="284.293" stroke="white" stroke-opacity="0.3"/>
<line opacity="0.8" x1="1.39355" y1="49.293" x2="618.394" y2="49.293" stroke="white" stroke-opacity="0.3"/>
<line opacity="0.8" x1="1021.39" y1="289.293" x2="1269.39" y2="289.293" stroke="white" stroke-opacity="0.3"/>
<line opacity="0.8" x1="144.397" y1="339.656" x2="144.397" y2="1.64294" stroke="white" stroke-opacity="0.3"/>
<line opacity="0.8" x1="1198.4" y1="339.656" x2="1198.4" y2="1.64294" stroke="white" stroke-opacity="0.3"/>
<defs>
<clipPath id="clip0">
<rect width="1060" height="243" fill="white" transform="translate(138.397 46.6504)"/>
</clipPath>
</defs>
</svg>
